# Blender v2.80 (sub 75) OBJ File: 'Minecart.blend'
# www.blender.org
mtllib Minecart.mtl
o gun_Cube.002
v 0.281961 -0.779127 1.501333
v 0.426097 0.752855 1.559992
v -2.253741 -0.779127 1.501333
v -2.397874 0.752855 1.559992
v 0.281961 -0.779127 -0.113024
v 0.426097 0.752855 -0.171682
v -2.253741 -0.779127 -0.113024
v 0.460366 -0.359344 1.614912
v -2.432145 -0.359344 1.614912
v -2.432145 -0.359344 -0.226603
v 0.460366 -0.359344 -0.226603
v 0.426097 -0.357882 1.559992
v -2.397874 -0.357882 1.559992
v -2.397874 -0.357882 -0.171682
v 0.426097 -0.357882 -0.171682
v -2.406750 -0.522520 -0.398596
v -2.406750 -0.831238 -0.398596
v 0.416490 -0.522520 -0.398596
v 0.416490 -0.831238 -0.398596
v -2.406750 -0.522520 -0.176840
v -2.406750 -0.831238 -0.176840
v 0.416490 -0.522520 -0.176840
v 0.416490 -0.831238 -0.176840
v -2.406750 -0.592187 -0.348631
v -2.406750 -0.761571 -0.348631
v 0.416490 -0.761571 -0.226801
v 0.416490 -0.592187 -0.226801
v 0.416490 -0.592187 -0.348631
v 0.416490 -0.761571 -0.348631
v -2.406750 -0.592187 -0.226801
v -2.406750 -0.761571 -0.226801
v -2.406750 -0.522520 1.542780
v -2.406750 -0.831238 1.542780
v 0.416490 -0.522520 1.542780
v 0.416490 -0.831238 1.542780
v -2.406750 -0.522520 1.764532
v -2.406750 -0.831238 1.764532
v 0.416490 -0.522520 1.764532
v 0.416490 -0.831238 1.764532
v -2.406750 -0.592187 1.592741
v -2.406750 -0.761571 1.592741
v 0.416490 -0.761571 1.714571
v 0.416490 -0.592187 1.714571
v 0.416490 -0.592187 1.592741
v 0.416490 -0.761571 1.592741
v -2.406750 -0.592187 1.714571
v -2.406750 -0.761571 1.714571
v 0.523046 0.933400 1.619440
v 0.786882 0.933400 1.822786
v -2.758656 0.933400 1.822786
v -2.494824 0.933400 1.619440
v -2.758656 0.933400 -0.434481
v -2.494824 0.933400 -0.231134
v 0.786882 0.933400 -0.434481
v 0.523046 0.933400 -0.231134
v 0.672979 0.752855 -0.361963
v -2.644757 0.752855 -0.361963
v -2.644757 0.752855 1.750273
v 0.672979 0.752855 1.750273
v -2.397874 0.752855 -0.171682
v -0.690692 -0.751794 -0.603354
v -0.690692 -0.751794 -0.407366
v -2.027903 -0.751794 -0.407366
v -2.027903 -0.751794 -0.603354
v -1.916531 -0.996632 -0.407366
v -1.916531 -0.996632 -0.603354
v -1.647656 -1.098049 -0.407366
v -1.647656 -1.098049 -0.603354
v -1.378781 -0.996632 -0.407366
v -1.378781 -0.996632 -0.603354
v -1.267411 -0.751794 -0.407366
v -1.267411 -0.751794 -0.603354
v -1.378781 -0.506955 -0.407366
v -1.378781 -0.506955 -0.603354
v -1.647656 -0.405539 -0.407366
v -1.647656 -0.405539 -0.603354
v -1.916531 -0.506955 -0.407366
v -1.916531 -0.506955 -0.603354
v -0.579318 -0.996632 -0.407366
v -0.579318 -0.996632 -0.603354
v -0.310443 -1.098049 -0.407366
v -0.310443 -1.098049 -0.603354
v -0.041569 -0.996632 -0.407366
v -0.041569 -0.996632 -0.603354
v 0.069804 -0.751794 -0.407366
v 0.069804 -0.751794 -0.603354
v -0.041569 -0.506955 -0.407366
v -0.041569 -0.506955 -0.603354
v -0.310443 -0.405539 -0.407366
v -0.310443 -0.405539 -0.603354
v -0.579318 -0.506955 -0.407366
v -0.579318 -0.506955 -0.603354
v -0.690692 -0.751794 1.768431
v -0.690692 -0.751794 1.964418
v -2.027903 -0.751794 1.964418
v -2.027903 -0.751794 1.768431
v -1.916531 -0.996632 1.964418
v -1.916531 -0.996632 1.768431
v -1.647656 -1.098049 1.964418
v -1.647656 -1.098049 1.768431
v -1.378781 -0.996632 1.964418
v -1.378781 -0.996632 1.768431
v -1.267411 -0.751794 1.964418
v -1.267411 -0.751794 1.768431
v -1.378781 -0.506955 1.964418
v -1.378781 -0.506955 1.768431
v -1.647656 -0.405539 1.964418
v -1.647656 -0.405539 1.768431
v -1.916531 -0.506955 1.964418
v -1.916531 -0.506955 1.768431
v -0.579318 -0.996632 1.964418
v -0.579318 -0.996632 1.768431
v -0.310443 -1.098049 1.964418
v -0.310443 -1.098049 1.768431
v -0.041569 -0.996632 1.964418
v -0.041569 -0.996632 1.768431
v 0.069804 -0.751794 1.964418
v 0.069804 -0.751794 1.768431
v -0.041569 -0.506955 1.964418
v -0.041569 -0.506955 1.768431
v -0.310443 -0.405539 1.964418
v -0.310443 -0.405539 1.768431
v -0.579318 -0.506955 1.964418
v -0.579318 -0.506955 1.768431
v -0.469247 -0.751794 2.035349
v -0.469247 -0.751794 -0.663458
v -0.421462 -0.856845 2.035349
v -0.421462 -0.856845 -0.663458
v -0.306096 -0.900358 2.035349
v -0.306096 -0.900358 -0.663458
v -0.190732 -0.856845 2.035349
v -0.190732 -0.856845 -0.663458
v -0.142947 -0.751794 2.035349
v -0.142947 -0.751794 -0.663458
v -0.190732 -0.646743 2.035349
v -0.190732 -0.646743 -0.663458
v -0.306096 -0.603229 2.035349
v -0.306096 -0.603229 -0.663458
v -0.421462 -0.646743 2.035349
v -0.421462 -0.646743 -0.663458
v -1.763018 -0.646743 -0.663458
v -1.763018 -0.646743 2.035349
v -1.647654 -0.603229 -0.663458
v -1.647654 -0.603229 2.035349
v -1.532292 -0.646743 -0.663458
v -1.532292 -0.646743 2.035349
v -1.484505 -0.751794 -0.663458
v -1.484505 -0.751794 2.035349
v -1.532292 -0.856845 -0.663458
v -1.532292 -0.856845 2.035349
v -1.647654 -0.900358 -0.663458
v -1.647654 -0.900358 2.035349
v -1.763018 -0.856845 -0.663458
v -1.763018 -0.856845 2.035349
v -1.810803 -0.751794 -0.663458
v -1.810803 -0.751794 2.035349
vt 0.447795 0.572734
vt 0.479735 0.566564
vt 0.479735 0.662078
vt 0.447795 0.656006
vt 0.573987 0.705221
vt 0.605936 0.701324
vt 0.605936 0.762137
vt 0.573987 0.758240
vt 0.634656 0.542332
vt 0.666571 0.536228
vt 0.666571 0.631749
vt 0.634656 0.625610
vt 0.063115 0.701068
vt 0.095122 0.697172
vt 0.095122 0.757985
vt 0.063115 0.754088
vt 0.000000 0.643660
vt 0.046389 0.643659
vt 0.046389 0.716651
vt 0.000000 0.716652
vt 0.230835 0.767946
vt 0.230835 0.686647
vt 0.262752 0.686645
vt 0.262752 0.767944
vt 0.051012 0.704338
vt 0.051012 0.750817
vt 0.622629 0.547454
vt 0.622629 0.620459
vt 0.561933 0.708492
vt 0.561933 0.754971
vt 0.435748 0.577910
vt 0.435748 0.650910
vt 0.238278 0.683836
vt 0.188517 0.683836
vt 0.188517 0.602536
vt 0.238277 0.602536
vt 0.193723 0.767924
vt 0.193723 0.686620
vt 0.225639 0.686621
vt 0.225639 0.767926
vt 0.798572 0.826923
vt 0.798572 0.876780
vt 0.766654 0.876780
vt 0.766654 0.826923
vt 0.682295 0.832866
vt 0.682295 0.882723
vt 0.650379 0.882723
vt 0.650379 0.832866
vt 0.975625 0.002652
vt 0.981997 0.002652
vt 0.981997 0.083930
vt 0.975625 0.083930
vt 0.942270 0.486063
vt 0.940275 0.486081
vt 0.940275 0.404803
vt 0.942270 0.404785
vt 0.979480 0.903746
vt 0.985852 0.903746
vt 0.985852 0.985015
vt 0.979480 0.985015
vt 0.947159 0.486081
vt 0.949145 0.486087
vt 0.949145 0.567370
vt 0.947159 0.567364
vt 0.940275 0.486086
vt 0.942292 0.486081
vt 0.942292 0.567364
vt 0.940275 0.567370
vt 0.949146 0.486080
vt 0.947137 0.486063
vt 0.947137 0.404785
vt 0.949146 0.404802
vt 0.978828 0.621005
vt 0.985200 0.621005
vt 0.985200 0.702283
vt 0.978828 0.702283
vt 0.941167 0.243756
vt 0.939172 0.243774
vt 0.939172 0.162496
vt 0.941167 0.162478
vt 0.979480 0.822477
vt 0.985852 0.822477
vt 0.985852 0.903746
vt 0.979480 0.903746
vt 0.947159 0.567370
vt 0.949145 0.567377
vt 0.949145 0.648660
vt 0.947159 0.648654
vt 0.940275 0.567376
vt 0.942292 0.567370
vt 0.942292 0.648654
vt 0.940275 0.648660
vt 0.948043 0.243773
vt 0.946034 0.243756
vt 0.946034 0.162478
vt 0.948043 0.162495
vt 0.400990 0.963275
vt 0.397489 0.963275
vt 0.397489 0.958398
vt 0.400990 0.958398
vt 0.396054 0.956392
vt 0.402426 0.956392
vt 0.396054 0.965281
vt 0.402426 0.965281
vt 0.223191 0.963297
vt 0.219690 0.963297
vt 0.219690 0.958420
vt 0.223191 0.958420
vt 0.218254 0.956414
vt 0.224627 0.956414
vt 0.218254 0.965303
vt 0.224627 0.965303
vt 0.080216 0.963322
vt 0.076715 0.963322
vt 0.076715 0.958445
vt 0.080216 0.958445
vt 0.075280 0.956439
vt 0.081652 0.956439
vt 0.081652 0.965328
vt 0.075280 0.965327
vt 0.226062 0.958420
vt 0.229563 0.958420
vt 0.229563 0.963297
vt 0.226062 0.963297
vt 0.230999 0.965302
vt 0.224627 0.965302
vt 0.224627 0.956414
vt 0.230999 0.956414
vt 0.803764 0.825212
vt 0.803764 0.878492
vt 0.687461 0.831154
vt 0.687461 0.884434
vt 0.100335 0.695084
vt 0.100335 0.760073
vt 0.611118 0.699235
vt 0.611118 0.764225
vt 0.225639 0.770717
vt 0.225639 0.683836
vt 0.188517 0.770723
vt 0.188517 0.683836
vt 0.671737 0.532958
vt 0.671737 0.635037
vt 0.484913 0.563259
vt 0.484913 0.665331
vt 0.115895 0.486001
vt 0.115895 0.572883
vt 0.110052 0.580478
vt 0.110052 0.478406
vt 0.169072 0.572883
vt 0.174915 0.580479
vt 0.169072 0.486001
vt 0.174915 0.478406
vt 0.617161 0.621355
vt 0.622629 0.628461
vt 0.561933 0.628463
vt 0.567401 0.621356
vt 0.617161 0.540065
vt 0.622629 0.532958
vt 0.567401 0.540066
vt 0.561933 0.532960
vt 0.324791 0.970479
vt 0.319159 0.970479
vt 0.319160 0.963405
vt 0.324791 0.963405
vt 0.725289 0.937384
vt 0.712124 0.942361
vt 0.717577 0.936873
vt 0.240290 0.862769
vt 0.234658 0.862769
vt 0.234658 0.855725
vt 0.240289 0.855725
vt 0.241610 0.941044
vt 0.260228 0.948080
vt 0.254775 0.954293
vt 0.241610 0.949317
vt 0.730742 0.943596
vt 0.712124 0.950634
vt 0.572956 0.970317
vt 0.567325 0.970317
vt 0.567321 0.962521
vt 0.572953 0.962520
vt 0.578588 0.962520
vt 0.572956 0.962521
vt 0.572960 0.954838
vt 0.578592 0.954837
vt 0.730742 0.951869
vt 0.717577 0.956846
vt 0.567325 0.954838
vt 0.572956 0.954837
vt 0.406683 0.941394
vt 0.419848 0.936418
vt 0.425301 0.942630
vt 0.406683 0.949667
vt 0.406683 0.941394
vt 0.393518 0.936418
vt 0.401230 0.935906
vt 0.809396 0.970299
vt 0.803764 0.970299
vt 0.803765 0.963225
vt 0.809396 0.963225
vt 0.578592 0.970317
vt 0.572960 0.970317
vt 0.388065 0.942631
vt 0.406683 0.949667
vt 0.401230 0.955880
vt 0.388065 0.950904
vt 0.803764 0.956201
vt 0.809396 0.956201
vt 0.425301 0.950903
vt 0.412136 0.955879
vt 0.393518 0.956392
vt 0.194153 0.954934
vt 0.199784 0.954935
vt 0.199786 0.962641
vt 0.194154 0.962641
vt 0.419848 0.956391
vt 0.199784 0.970416
vt 0.194153 0.970416
vt 0.260228 0.939807
vt 0.247063 0.934831
vt 0.254775 0.934319
vt 0.292169 0.962930
vt 0.286538 0.962930
vt 0.286537 0.955886
vt 0.292169 0.955886
vt 0.240289 0.869823
vt 0.234658 0.869823
vt 0.725289 0.957358
vt 0.319159 0.956381
vt 0.324791 0.956381
vt 0.247063 0.954805
vt 0.495500 0.971219
vt 0.489868 0.971219
vt 0.489867 0.963513
vt 0.495499 0.963513
vt 0.489869 0.955738
vt 0.495500 0.955738
vt 0.292169 0.969985
vt 0.286537 0.969985
vt 0.412136 0.935906
vt 0.319159 0.970479
vt 0.313527 0.970479
vt 0.313528 0.963405
vt 0.319159 0.963405
vt 0.692914 0.956464
vt 0.706079 0.951487
vt 0.700626 0.956975
vt 0.280905 0.962930
vt 0.275274 0.962930
vt 0.275273 0.955886
vt 0.280905 0.955886
vt 0.478341 0.947212
vt 0.459724 0.940176
vt 0.465177 0.933963
vt 0.478341 0.938939
vt 0.687461 0.950252
vt 0.706079 0.943214
vt 0.435005 0.699876
vt 0.429373 0.699876
vt 0.429370 0.692079
vt 0.435001 0.692079
vt 0.194149 0.962617
vt 0.188517 0.962618
vt 0.188521 0.954935
vt 0.194153 0.954934
vt 0.687461 0.941979
vt 0.700626 0.937002
vt 0.429373 0.684396
vt 0.435005 0.684396
vt 0.093898 0.950951
vt 0.080733 0.955928
vt 0.075280 0.949716
vt 0.093898 0.942678
vt 0.580551 0.939839
vt 0.567386 0.934863
vt 0.575098 0.934351
vt 0.815028 0.970299
vt 0.809396 0.970299
vt 0.809397 0.963225
vt 0.815028 0.963225
vt 0.194153 0.970414
vt 0.188521 0.970414
vt 0.561933 0.941076
vt 0.580551 0.948112
vt 0.575098 0.954325
vt 0.561933 0.949350
vt 0.809396 0.956201
vt 0.815028 0.956201
vt 0.075280 0.941443
vt 0.088445 0.936466
vt 0.567386 0.954837
vt 0.495500 0.955738
vt 0.501132 0.955738
vt 0.501133 0.963445
vt 0.495502 0.963445
vt 0.080733 0.935954
vt 0.501132 0.971220
vt 0.495500 0.971220
vt 0.459724 0.948449
vt 0.472888 0.953425
vt 0.465176 0.953937
vt 0.286537 0.962930
vt 0.280906 0.962930
vt 0.280905 0.955886
vt 0.286537 0.955886
vt 0.280905 0.969985
vt 0.275273 0.969985
vt 0.692914 0.936490
vt 0.313527 0.956381
vt 0.319159 0.956381
vt 0.472888 0.933451
vt 0.506766 0.971219
vt 0.501134 0.971219
vt 0.501133 0.963513
vt 0.506765 0.963513
vt 0.501134 0.955738
vt 0.506766 0.955738
vt 0.286537 0.969985
vt 0.280905 0.969985
vt 0.088445 0.956439
vt 0.420320 0.956610
vt 0.414671 0.958746
vt 0.417011 0.956391
vt 0.985908 0.340905
vt 0.985908 0.263204
vt 0.988925 0.263204
vt 0.988925 0.340905
vt 0.422660 0.959276
vt 0.414671 0.962295
vt 0.981442 0.167905
vt 0.981442 0.090203
vt 0.984781 0.090202
vt 0.984781 0.167903
vt 0.422660 0.962825
vt 0.417011 0.964961
vt 0.988071 0.090204
vt 0.988071 0.167905
vt 0.961345 0.626831
vt 0.955697 0.624696
vt 0.959005 0.624476
vt 0.028380 0.914694
vt 0.028380 0.992395
vt 0.025351 0.992395
vt 0.025351 0.914694
vt 0.953357 0.627362
vt 0.961345 0.630381
vt 0.959005 0.633046
vt 0.953357 0.630912
vt 0.022343 0.992395
vt 0.022343 0.914694
vt 0.955696 0.633266
vt 0.587028 0.985105
vt 0.587028 0.907403
vt 0.590328 0.907403
vt 0.590328 0.985104
vt 0.593657 0.907403
vt 0.593657 0.985105
vt 0.982888 0.340905
vt 0.982887 0.263204
vt 0.420320 0.965180
vt 0.393714 0.965182
vt 0.390405 0.964962
vt 0.396054 0.962827
vt 0.988035 0.002652
vt 0.988035 0.080353
vt 0.985014 0.080353
vt 0.985014 0.002652
vt 0.983159 0.583215
vt 0.983159 0.505514
vt 0.986488 0.505515
vt 0.986488 0.583216
vt 0.409023 0.956611
vt 0.414671 0.958746
vt 0.414671 0.962295
vt 0.406683 0.959276
vt 0.979859 0.583216
vt 0.979859 0.505515
vt 0.406683 0.962826
vt 0.412332 0.964961
vt 0.409023 0.965181
vt 0.987729 0.702283
vt 0.987729 0.779985
vt 0.984721 0.779985
vt 0.984721 0.702283
vt 0.990758 0.702283
vt 0.990758 0.779985
vt 0.412332 0.956391
vt 0.984781 0.245606
vt 0.984780 0.167905
vt 0.988071 0.167907
vt 0.988071 0.245608
vt 0.388065 0.962297
vt 0.396054 0.959277
vt 0.981442 0.245608
vt 0.981442 0.167906
vt 0.388065 0.958747
vt 0.393714 0.956612
vt 0.981997 0.080353
vt 0.981997 0.002652
vt 0.390405 0.956392
vn 0.0000 -0.1208 0.9927
vn -0.9822 -0.1878 0.0000
vn 0.0000 -0.1208 -0.9927
vn 0.9822 -0.1878 0.0000
vn 0.0000 -1.0000 0.0000
vn 0.0000 0.0000 1.0000
vn 0.9203 -0.3911 0.0000
vn 0.0000 -0.2612 -0.9653
vn -0.9203 -0.3911 0.0000
vn 0.0000 -0.2612 0.9653
vn 0.0000 1.0000 0.0000
vn 0.0000 0.0000 -1.0000
vn -1.0000 0.0000 0.0000
vn 1.0000 0.0000 0.0000
vn 0.0000 -0.5828 0.8126
vn 0.0000 -0.5828 -0.8126
vn 0.0000 0.5828 -0.8126
vn 0.0000 0.5828 0.8126
vn -0.8810 0.4731 0.0000
vn 0.8810 0.4731 0.0000
vn 0.8458 -0.5336 0.0000
vn -0.8458 -0.5336 0.0000
vn 0.0000 0.3128 0.9498
vn 0.0000 0.3128 -0.9498
vn 0.0000 -0.3727 -0.9279
vn 0.0000 -0.3727 0.9280
vn 0.9102 -0.4141 0.0000
vn -0.9103 -0.4141 0.0000
vn -0.3529 -0.9357 0.0000
vn 0.3529 -0.9357 0.0000
vn 0.9103 -0.4140 0.0000
vn 0.9103 0.4140 0.0000
vn 0.3529 0.9357 0.0000
vn -0.3529 0.9357 0.0000
vn -0.9102 -0.4141 0.0000
vn -0.9103 0.4141 0.0000
vn 0.9102 0.4141 0.0000
vn -0.9102 0.4141 0.0000
vn -0.9103 -0.4140 0.0000
vn 0.9103 -0.4141 0.0000
vn 0.9103 0.4141 0.0000
vn -0.9103 0.4140 0.0000
usemtl Assets_finais
s off
f 8/1/1 59/2/1 58/3/1 9/4/1
f 9/5/2 58/6/2 57/7/2 10/8/2
f 10/9/3 57/10/3 56/11/3 11/12/3
f 11/13/4 56/14/4 59/15/4 8/16/4
f 3/17/5 7/18/5 5/19/5 1/20/5
f 6/21/6 60/22/6 14/23/6 15/24/6
f 5/25/7 11/13/7 8/16/7 1/26/7
f 7/27/8 10/9/8 11/12/8 5/28/8
f 3/29/9 9/5/9 10/8/9 7/30/9
f 1/31/10 8/1/10 9/4/10 3/32/10
f 14/33/11 13/34/11 12/35/11 15/36/11
f 4/37/12 2/38/12 12/39/12 13/40/12
f 2/41/13 6/42/13 15/43/13 12/44/13
f 60/45/14 4/46/14 13/47/14 14/48/14
f 16/49/11 20/50/11 22/51/11 18/52/11
f 27/53/15 22/54/15 20/55/15 30/56/15
f 21/57/5 17/58/5 19/59/5 23/60/5
f 24/61/16 16/62/16 18/63/16 28/64/16
f 17/65/17 25/66/17 29/67/17 19/68/17
f 25/66/12 24/61/12 28/64/12 29/67/12
f 23/69/18 26/70/18 31/71/18 21/72/18
f 26/70/6 27/53/6 30/56/6 31/71/6
f 32/73/11 36/74/11 38/75/11 34/76/11
f 43/77/15 38/78/15 36/79/15 46/80/15
f 37/81/5 33/82/5 35/83/5 39/84/5
f 40/85/16 32/86/16 34/87/16 44/88/16
f 33/89/17 41/90/17 45/91/17 35/92/17
f 41/90/12 40/85/12 44/88/12 45/91/12
f 39/93/18 42/94/18 47/95/18 37/96/18
f 42/94/6 43/77/6 46/80/6 47/95/6
f 25/97/13 31/98/13 30/99/13 24/100/13
f 20/101/13 16/102/13 24/100/13 30/99/13
f 21/103/13 31/98/13 25/97/13 17/104/13
f 41/105/13 47/106/13 46/107/13 40/108/13
f 36/109/13 32/110/13 40/108/13 46/107/13
f 37/111/13 47/106/13 41/105/13 33/112/13
f 42/113/14 45/114/14 44/115/14 43/116/14
f 43/116/14 44/115/14 34/117/14 38/118/14
f 45/114/14 42/113/14 39/119/14 35/120/14
f 26/121/14 29/122/14 28/123/14 27/124/14
f 27/124/14 28/123/14 18/125/14 22/126/14
f 29/122/14 26/121/14 23/127/14 19/128/14
f 6/42/19 2/41/19 48/129/19 55/130/19
f 4/46/20 60/45/20 53/131/20 51/132/20
f 59/15/21 56/14/21 54/133/21 49/134/21
f 57/7/22 58/6/22 50/135/22 52/136/22
f 60/22/23 6/21/23 55/137/23 53/138/23
f 2/38/24 4/37/24 51/139/24 48/140/24
f 56/11/25 57/10/25 52/141/25 54/142/25
f 58/3/26 59/2/26 49/143/26 50/144/26
f 48/145/11 51/146/11 50/147/11 49/148/11
f 51/146/11 53/149/11 52/150/11 50/147/11
f 53/149/11 55/151/11 54/152/11 52/150/11
f 55/151/11 48/145/11 49/148/11 54/152/11
f 6/153/5 56/154/5 59/155/5 2/156/5
f 60/157/5 57/158/5 56/154/5 6/153/5
f 4/159/5 58/160/5 57/158/5 60/157/5
f 2/156/5 59/155/5 58/160/5 4/159/5
f 83/161/27 84/162/27 86/163/27 85/164/27
f 73/165/6 69/166/6 71/167/6
f 63/168/28 64/169/28 66/170/28 65/171/28
f 82/172/12 90/173/12 88/174/12 84/175/12
f 75/176/6 67/177/6 69/166/6 73/165/6
f 65/178/29 66/179/29 68/180/29 67/181/29
f 81/182/30 82/183/30 84/184/30 83/185/30
f 77/186/6 65/187/6 67/177/6 75/176/6
f 67/181/30 68/180/30 70/188/30 69/189/30
f 91/190/6 79/191/6 81/192/6 89/193/6
f 78/194/12 66/195/12 64/196/12
f 69/197/31 70/198/31 72/199/31 71/200/31
f 79/201/29 80/202/29 82/183/29 81/182/29
f 68/203/12 76/204/12 74/205/12 70/206/12
f 71/200/32 72/199/32 74/207/32 73/208/32
f 89/193/6 81/192/6 83/209/6 87/210/6
f 70/206/12 74/205/12 72/211/12
f 73/212/33 74/213/33 76/214/33 75/215/33
f 66/195/12 78/194/12 76/204/12 68/203/12
f 87/210/6 83/209/6 85/216/6
f 75/215/34 76/214/34 78/217/34 77/218/34
f 92/219/12 80/220/12 61/221/12
f 62/222/35 61/223/35 80/224/35 79/225/35
f 77/226/36 78/227/36 64/169/36 63/168/36
f 63/228/6 65/187/6 77/186/6
f 85/164/37 86/163/37 88/229/37 87/230/37
f 84/175/12 88/174/12 86/231/12
f 87/232/33 88/233/33 90/234/33 89/235/33
f 80/220/12 92/219/12 90/173/12 82/172/12
f 89/235/34 90/234/34 92/236/34 91/237/34
f 91/238/38 92/239/38 61/223/38 62/222/38
f 62/240/6 79/191/6 91/190/6
f 115/241/27 116/242/27 118/243/27 117/244/27
f 105/245/6 101/246/6 103/247/6
f 95/248/28 96/249/28 98/250/28 97/251/28
f 114/252/12 122/253/12 120/254/12 116/255/12
f 107/256/6 99/257/6 101/246/6 105/245/6
f 97/258/29 98/259/29 100/260/29 99/261/29
f 113/262/30 114/263/30 116/264/30 115/265/30
f 109/266/6 97/267/6 99/257/6 107/256/6
f 99/261/30 100/260/30 102/268/30 101/269/30
f 123/270/6 111/271/6 113/272/6 121/273/6
f 110/274/12 98/275/12 96/276/12
f 101/277/31 102/278/31 104/279/31 103/280/31
f 111/281/29 112/282/29 114/263/29 113/262/29
f 100/283/12 108/284/12 106/285/12 102/286/12
f 103/280/32 104/279/32 106/287/32 105/288/32
f 121/273/6 113/272/6 115/289/6 119/290/6
f 102/286/12 106/285/12 104/291/12
f 105/292/33 106/293/33 108/294/33 107/295/33
f 98/275/12 110/274/12 108/284/12 100/283/12
f 119/290/6 115/289/6 117/296/6
f 107/295/34 108/294/34 110/297/34 109/298/34
f 124/299/12 112/300/12 93/301/12
f 94/302/35 93/303/35 112/304/35 111/305/35
f 109/306/36 110/307/36 96/249/36 95/248/36
f 95/308/6 97/267/6 109/266/6
f 117/244/37 118/243/37 120/309/37 119/310/37
f 116/255/12 120/254/12 118/311/12
f 119/312/33 120/313/33 122/314/33 121/315/33
f 112/300/12 124/299/12 122/253/12 114/252/12
f 121/315/34 122/314/34 124/316/34 123/317/34
f 123/318/38 124/319/38 93/303/38 94/302/38
f 94/320/6 111/271/6 123/270/6
f 135/321/6 131/322/6 133/323/6
f 125/324/39 126/325/39 128/326/39 127/327/39
f 137/328/6 129/329/6 131/322/6 135/321/6
f 127/330/29 128/331/29 130/332/29 129/333/29
f 139/334/6 127/335/6 129/329/6 137/328/6
f 129/333/30 130/332/30 132/336/30 131/337/30
f 140/338/12 128/339/12 126/340/12
f 131/341/40 132/342/40 134/343/40 133/344/40
f 130/345/12 138/346/12 136/347/12 132/348/12
f 133/344/41 134/343/41 136/349/41 135/350/41
f 132/348/12 136/347/12 134/351/12
f 135/352/33 136/353/33 138/354/33 137/355/33
f 128/339/12 140/338/12 138/346/12 130/345/12
f 137/355/34 138/354/34 140/356/34 139/357/34
f 139/358/42 140/359/42 126/325/42 125/324/42
f 125/360/6 127/335/6 139/334/6
f 156/361/6 154/362/6 142/363/6
f 142/364/36 141/365/36 155/366/36 156/367/36
f 144/368/34 143/369/34 141/370/34 142/371/34
f 153/372/12 141/373/12 143/374/12 151/375/12
f 146/376/33 145/377/33 143/369/33 144/368/33
f 149/378/12 145/379/12 147/380/12
f 148/381/37 147/382/37 145/383/37 146/384/37
f 151/375/12 143/374/12 145/379/12 149/378/12
f 150/385/27 149/386/27 147/382/27 148/381/27
f 141/373/12 153/372/12 155/387/12
f 152/388/30 151/389/30 149/390/30 150/391/30
f 142/363/6 154/362/6 152/392/6 144/393/6
f 154/394/29 153/395/29 151/389/29 152/388/29
f 144/393/6 152/392/6 150/396/6 146/397/6
f 156/367/28 155/366/28 153/398/28 154/399/28
f 146/397/6 150/396/6 148/400/6
